<svg width="146" height="132" viewBox="0 0 146 132" fill="none" xmlns="http://www.w3.org/2000/svg">
<g clip-path="url(#clip0_15_537)">
<path d="M145.835 119.215C145.835 119.393 145.835 119.557 145.835 119.735C145.89 119.79 145.931 119.844 145.985 119.899C145.985 121.089 145.985 122.278 145.985 123.468C145.699 124.097 145.426 124.712 145.14 125.341C144.662 125.957 144.226 126.613 143.707 127.188C142.562 128.459 141.252 129.485 139.533 129.881C139.165 129.963 138.838 130.264 138.497 130.456C135.946 130.51 133.408 130.579 130.858 130.634C129.439 130.634 128.02 130.634 126.615 130.634C121.964 130.579 117.326 130.538 112.674 130.483C111.992 130.483 111.31 130.483 110.642 130.483C108.35 130.62 107.313 130.087 106.74 128.418C106.849 127.174 106.958 125.916 107.068 124.671C107.068 123.113 107.095 121.554 107.068 119.995C107.068 119.502 106.863 119.024 106.754 118.532C106.754 118.477 106.754 118.422 106.754 118.367C106.699 117.807 106.576 117.246 106.59 116.699C106.686 114.251 105.976 111.913 105.512 109.561C105.199 108.002 104.749 106.471 104.353 104.925C103.671 103.161 103.003 101.397 102.32 99.6471C101.434 97.2267 100.547 94.82 99.6605 92.3996C99.565 92.1398 99.4149 91.8389 99.4559 91.5928C99.6059 90.5672 98.9921 89.9108 98.4464 89.1861C98.0781 88.6938 97.8599 88.1058 97.5598 87.5588C96.7004 86.0136 95.8001 84.4957 94.9543 82.9505C94.7906 82.6497 94.8179 82.2394 94.6542 81.9112C93.9858 80.5575 93.3174 79.2037 92.5671 77.8909C92.2943 77.4123 91.7896 77.0568 92.1033 76.25C92.649 76.3457 93.2219 76.4278 93.7812 76.5508C95.3499 76.9201 96.9323 77.2756 98.4874 77.6858C99.0194 77.8226 99.5241 78.1234 100.042 78.3149C101.134 78.7251 102.239 79.1216 103.344 79.5319C103.589 79.655 103.821 79.8327 104.08 79.9148C105.731 80.3797 107.381 80.872 109.059 81.2549C112.606 82.0617 115.975 83.3197 119.235 84.8923C121.732 86.0956 124.119 87.4904 126.192 89.3639C128.075 91.0732 129.957 92.7688 131.158 95.0798C131.54 95.8319 131.99 96.543 132.399 97.2677C132.399 97.4318 132.399 97.6096 132.399 97.7737C132.399 98.3343 132.399 98.9087 132.385 99.4693C132.222 99.5103 132.017 99.4967 131.908 99.5924C130.53 100.7 130.626 102.382 132.099 103.367C133.818 104.502 135.646 105.486 137.214 106.799C138.892 108.194 140.488 109.766 141.798 111.489C143.066 113.171 143.939 115.168 144.976 117.014C145.262 117.752 145.549 118.491 145.822 119.229L145.835 119.215ZM111.842 88.3793C111.61 88.3246 111.392 88.2699 111.16 88.2152C111.051 88.2152 110.942 88.2152 110.819 88.2152C110.532 88.1468 110.246 88.0648 109.946 88.0101C109.046 87.8323 108.8 88.0648 109.073 88.9536C109.373 89.9108 109.7 90.8954 110.164 91.7706C110.587 92.5637 111.105 93.4115 111.801 93.9038C112.51 94.4097 113.506 94.5328 114.379 94.8337C114.707 94.902 115.034 94.9567 115.361 95.0251C116.398 95.2439 117.421 95.4627 118.458 95.6815C119.604 95.2439 119.822 95.0661 119.604 93.8901C119.467 93.097 119.072 92.2628 118.553 91.6612C116.794 89.6373 114.406 88.8032 111.828 88.3656L111.842 88.3793ZM129.862 116.152H130.203C131.103 116.357 131.894 115.687 132.072 114.607C132.072 114.265 132.072 113.923 132.072 113.595C132.14 112.132 131.417 110.997 130.571 109.903C129.412 108.399 128.034 107.086 126.233 106.484C124.214 105.814 122.1 105.404 120.027 104.939C118.362 104.57 117.721 105.336 118.253 106.99C118.321 107.195 118.444 107.401 118.526 107.606C118.853 108.344 119.167 109.096 119.522 109.835C120.245 111.325 120.913 112.87 121.773 114.279C122.059 114.771 122.85 114.949 123.41 115.277C124.31 115.414 125.224 115.564 126.124 115.701C127.024 115.838 127.938 115.988 128.839 116.125C129.18 116.125 129.521 116.125 129.862 116.125V116.152Z" fill="#FAF8CE"/>
<path d="M20.2575 5.26197e-06C21.608 0.0547033 22.9721 0.109401 24.3225 0.164099C24.609 0.273495 24.8955 0.382891 25.1819 0.492288C25.4684 0.615358 25.7412 0.724754 26.0277 0.847825C26.205 0.957221 26.3687 1.06662 26.546 1.17601C27.0644 1.51788 27.5555 1.88709 28.0875 2.2016C30.7611 3.73315 32.93 5.81167 34.6761 8.31411C35.7537 9.85932 36.7086 11.4866 37.6908 13.0865C38.5229 14.454 39.3822 15.8077 40.1461 17.2162C41.3193 19.4041 42.4106 21.6194 43.5428 23.821C43.5428 23.8757 43.5291 23.9441 43.5428 23.9851C43.9383 24.8739 44.4158 25.7491 44.7432 26.6653C45.1388 27.7866 45.4252 28.9489 45.7526 30.0976C45.8208 30.3711 45.8072 30.6719 45.9027 30.9181C46.2573 31.889 46.6529 32.8325 46.9939 33.8034C47.0894 34.0905 47.1167 34.4051 47.1167 34.7196C47.1167 36.7571 47.1167 38.8083 47.1167 40.8458C47.1167 42.1448 48.4672 43.526 49.7631 43.567C51.1954 43.6217 51.5364 44.0729 51.9184 45.5224C52.2594 46.8215 52.3276 48.23 53.1324 49.406C53.4598 49.8846 53.1597 50.2675 52.5186 50.3769C51.4409 50.5683 50.5543 50.0897 49.6267 49.6795C48.5899 49.2009 47.5123 48.8317 46.4756 48.3531C45.8481 48.0659 45.1115 47.7924 44.675 47.2864C43.5155 45.9464 42.0286 46.0831 40.5281 46.1378C39.4914 46.1788 38.441 46.2745 37.4043 46.2882C35.8219 46.3156 34.2396 46.2882 32.6436 46.2882C31.8524 46.2882 31.1294 46.2062 30.3792 45.8096C29.8062 45.5088 29.0014 45.7002 28.3057 45.5908C27.6646 45.4814 27.0371 45.2763 26.396 45.1122C25.2228 44.825 24.0497 44.5105 22.8629 44.2507C22.3446 44.1413 21.7989 44.1276 21.2806 44.0729C20.1484 43.3482 19.0844 42.4867 17.884 41.9124C14.4737 40.2851 11.1999 38.4664 8.13063 36.2374C6.02991 34.7196 4.16109 32.9829 2.63329 30.9044C1.85575 29.8378 1.22826 28.6754 0.546213 27.5541C0.423444 26.8704 0.314315 26.1867 0.191546 25.5166C-0.0539927 24.1355 -0.0949158 22.7681 0.368879 21.428C0.423444 21.0314 0.491649 20.6348 0.546213 20.2519C1.09185 19.3631 1.65114 18.4606 2.18314 17.5717C3.42447 15.5069 4.62488 13.4147 5.90714 11.3772C6.52099 10.42 7.29853 9.55849 8.00786 8.65597C8.43073 8.13634 8.81268 7.58936 9.29012 7.12442C11.5409 4.95018 13.9417 3.0084 16.7654 1.6136C17.502 1.24439 18.1841 0.752103 18.8934 0.314519C19.3436 0.205123 19.7937 0.0957268 20.2439 -0.0273438L20.2575 5.26197e-06ZM15.8378 16.341C14.8966 17.5581 14.501 18.9939 14.3509 20.4844C14.3373 20.6759 14.7738 20.9083 14.9921 21.1134C17.4611 21.0451 19.9438 21.004 22.29 21.9749C22.7129 22.2074 23.1085 22.4672 23.545 22.6723C26.2596 23.8757 28.6331 25.5577 30.7475 27.6362C32.5208 29.3728 34.2532 31.1642 36.0402 32.8735C36.3949 33.2154 36.9678 33.3521 37.4589 33.4752C37.5407 33.5025 37.759 32.9692 37.9226 32.6958C37.8135 31.6155 37.7044 30.5489 37.5953 29.4686C37.4861 27.6088 36.8041 25.8995 36.0948 24.2176C34.2941 19.9648 32.1389 15.9582 28.0056 13.4831C26.8734 12.813 25.7139 12.1566 24.3498 12.1019C24.0088 12.1019 23.6814 12.1019 23.3404 12.1019C23.2858 12.0472 23.2176 11.9925 23.163 11.9378C22.7129 11.9378 22.2627 11.9378 21.8126 11.9378C20.1893 12.0062 18.8388 12.731 17.6794 13.7976C16.9018 14.5087 16.0561 15.2197 15.8651 16.3547L15.8378 16.341ZM18.8934 28.6207C18.7843 28.6207 18.6751 28.6207 18.566 28.6207C18.5115 28.6207 18.4433 28.6207 18.3887 28.6207H17.5429C16.6563 28.6891 16.3835 28.9626 16.5471 29.7831C16.6426 30.2617 16.82 30.795 17.1337 31.1642C19.9847 34.4598 23.545 36.6614 27.7464 37.8237C28.3057 37.8647 28.865 37.9057 29.4243 37.9604C30.5701 38.0835 31.7023 38.2066 32.8482 38.3433C32.9573 38.2066 33.1892 38.0288 33.1483 37.9468C32.9573 37.3998 32.8345 36.7297 32.4526 36.3742C30.7202 34.7743 28.9878 33.1333 27.078 31.7659C25.7003 30.7813 24.077 30.1249 22.4946 29.5096C21.3624 29.072 20.1075 28.9353 18.907 28.6618L18.8934 28.6207Z" fill="#FAF8CE"/>
<path d="M15.495 90.9491C15.7679 90.7987 16.068 90.703 16.2999 90.5115C18.6598 88.5834 21.2379 86.9972 23.8843 85.5067C26.6261 83.9614 29.4907 82.6897 32.3281 81.377C34.1287 80.5428 36.1748 80.242 38.1119 79.695C38.3574 79.6266 38.5893 79.5309 38.8212 79.4215C39.3805 79.148 39.9125 78.7104 40.4991 78.6147C43.0909 78.2182 45.6554 77.1926 48.3017 77.7122C50.1569 78.0814 51.5346 79.3258 52.5168 80.9941C53.2943 82.3342 53.4444 83.7153 52.9942 85.1511C52.776 85.8075 52.244 86.3271 52.4486 87.175C52.5168 87.4895 51.9984 88.1185 51.5892 88.3373C50.8662 88.7338 50.0478 88.9526 49.2566 89.2261C49.1065 89.2808 48.9156 89.2261 48.7519 89.2671C47.3605 89.6637 45.9827 90.115 44.5777 90.4568C43.9639 90.6073 43.2955 90.5799 42.6543 90.5389C42.5316 90.5389 42.3542 90.0603 42.3542 89.8005C42.3542 88.9116 42.3406 88.1322 41.5494 87.4348C40.8128 86.7784 40.1307 86.3545 39.1486 86.4912C38.9031 86.5186 38.6302 86.5186 38.3847 86.4912C36.9933 86.3408 35.752 86.6963 34.497 87.3254C32.6555 88.2689 30.6911 88.98 28.8496 89.9235C27.7174 90.5115 26.5988 91.2089 25.6712 92.0841C23.3659 94.2583 21.1015 96.501 18.9462 98.8256C17.9368 99.9196 17.2138 101.273 16.409 102.531C15.9998 103.16 15.5769 103.803 15.3177 104.501C14.9494 105.485 14.5947 106.497 14.4992 107.536C14.3628 108.945 14.4583 110.367 14.472 111.789C14.472 113.84 16.4363 115.796 18.4688 115.796C19.5191 115.796 20.5695 115.727 21.6062 115.809C23.3659 115.946 24.6755 115.112 26.0805 114.168C30.0227 111.543 32.8191 107.741 36.2294 104.569C37.3889 103.489 38.7803 103.119 40.1717 102.901C41.2493 102.737 42.2997 102.654 43.2136 102.039C44.4004 101.232 45.6963 101.492 47.1286 101.492C47.0331 101.957 47.0467 102.354 46.8831 102.682C46.0646 104.377 45.2052 106.046 44.3458 107.728C44.1821 108.042 43.882 108.302 43.7047 108.603C42.7225 110.216 41.8086 111.871 40.7582 113.43C39.5851 115.208 38.3983 116.985 36.7614 118.408C36.4067 118.708 36.2703 119.255 36.0248 119.679C35.2745 120.295 34.4424 120.842 33.774 121.553C31.7688 123.713 29.5862 125.71 27.1718 127.364C25.3711 128.595 23.2977 129.416 21.347 130.414C21.0197 130.578 20.7059 130.756 20.3922 130.933C19.26 131.221 18.1278 131.494 16.9955 131.781C15.3586 131.836 13.7081 131.891 12.0711 131.945C11.28 131.713 10.4888 131.494 9.69759 131.262C8.96098 130.728 8.25164 130.168 7.48775 129.662C6.0418 128.718 4.69133 127.693 3.69554 126.257C3.06805 125.327 2.46785 124.37 1.86764 123.44C1.58118 122.77 1.322 122.086 1.00825 121.43C0.926408 121.265 0.68087 121.17 0.503536 121.033C0.503536 120.924 0.503536 120.814 0.503536 120.719C0.503536 120.664 0.503536 120.595 0.503536 120.541C0.448972 120.308 0.394408 120.089 0.339844 119.857C0.339844 117.3 0.339844 114.756 0.339844 112.199C0.626305 111.119 0.912767 110.052 1.18559 108.972C1.322 108.849 1.51297 108.753 1.59482 108.603C2.4542 106.935 3.12261 105.13 4.17297 103.598C5.86446 101.137 7.71964 98.7846 9.65667 96.5146C10.9526 94.9968 12.494 93.684 13.9263 92.2755C14.431 91.8243 14.9494 91.373 15.4541 90.9218L15.495 90.9491Z" fill="#FAF8CE"/>
<path d="M120.845 42.9104C120.681 42.4592 120.517 41.9942 120.354 41.543C120.354 41.4336 120.354 41.3242 120.354 41.2148C120.354 41.1054 120.354 40.9823 120.354 40.8729C120.354 40.7088 120.354 40.5311 120.354 40.367C120.149 38.5893 119.262 37.1261 118.212 35.7723C117.735 35.1433 117.066 34.6374 116.411 34.1861C116.234 34.063 115.566 34.2818 115.497 34.4869C115.279 35.116 115.225 35.7997 115.115 36.4561C115.061 37.0167 114.993 37.591 114.938 38.1517C114.938 38.8354 114.938 39.5192 114.938 40.2029C114.938 40.367 114.938 40.5447 114.938 40.7088C114.938 41.6114 114.938 42.5275 114.938 43.4301C114.938 43.7172 114.938 43.9907 114.938 44.2779C114.774 44.565 114.597 44.8522 114.433 45.1257C113.478 45.4676 112.51 45.8094 111.555 46.1513C110.928 46.3154 110.3 46.4658 109.7 46.6709C107.94 47.2316 106.194 47.7922 104.462 48.4076C104.175 48.5033 103.971 48.8315 103.739 49.0503H101.652C101.488 48.3529 101.474 47.7375 101.856 47.0948C102.511 46.0145 103.07 44.9069 102.92 43.5395C102.811 42.5139 102.866 41.5156 103.425 40.5174C103.916 39.6559 103.957 38.5483 104.271 37.5774C104.571 36.6202 105.076 35.7313 105.294 34.7604C105.567 33.516 106.426 32.4358 106.303 31.082C106.276 30.8632 106.303 30.5897 106.44 30.4393C107.067 29.6872 106.944 28.812 106.999 27.9368C107.026 27.4856 107.231 27.0343 107.381 26.5967C107.64 25.8036 107.995 25.0379 108.172 24.2311C108.459 22.8773 109.332 21.6466 109.032 20.1697C109.004 20.033 109.032 19.8826 109.072 19.7458C109.441 18.7886 109.836 17.8451 110.191 16.8878C110.3 16.5733 110.341 16.2315 110.382 15.9033C110.45 15.2606 110.505 14.6179 110.559 13.9752C111.623 12.4983 112.033 10.8027 112.251 9.02501C112.251 8.68314 112.251 8.35496 112.264 8.01309C112.483 7.21997 112.715 6.42685 112.933 5.62006C113.042 5.33289 113.151 5.0594 113.274 4.77224C113.56 2.92618 114.433 1.54505 116.343 1.02542C117.434 1.02542 118.526 1.02542 119.617 1.01175C121.049 0.970724 122.495 0.875003 123.928 0.861328C124.91 0.861328 125.892 0.95705 126.874 1.01175C126.983 1.06645 127.106 1.12114 127.215 1.16217C127.501 1.16217 127.774 1.17584 128.061 1.18952C128.511 1.40831 128.975 1.6271 129.425 1.84589C129.82 2.05101 130.216 2.24245 130.612 2.44757C134.731 4.51242 137.432 7.87635 139.287 12.006C139.465 12.3889 139.724 12.7445 139.942 13.1137C139.997 13.3462 140.051 13.5649 140.119 13.7974C140.351 15.7939 140.501 17.7767 139.956 19.7458C139.956 19.9099 139.956 20.074 139.942 20.2518C139.833 20.3201 139.683 20.3748 139.615 20.4706C138.755 21.6466 137.923 22.8226 137.064 24.0123C136.668 24.4635 136.273 24.9148 135.863 25.366C135.577 25.5985 135.291 25.8173 135.018 26.0498C133.449 26.9523 131.894 27.8958 130.298 28.7436C128.893 29.4821 128.811 30.029 129.861 31.2187C131.198 32.7366 132.535 34.2681 133.695 35.9228C135.1 37.8919 136.3 40.0114 138.428 41.3379C138.755 41.543 139.083 41.8028 139.342 42.0763C139.71 42.4592 139.792 42.8147 139.096 42.9378C138.633 43.0198 138.182 43.1429 137.732 43.2523C136.996 43.307 136.259 43.3617 135.522 43.4301C135.127 43.4848 134.731 43.5395 134.336 43.5942C134.049 43.5942 133.776 43.5942 133.49 43.5942C133.053 43.5942 132.59 43.5121 132.167 43.5942C131.567 43.7446 130.994 44.0181 130.421 44.2505C129.807 44.2505 129.179 44.2505 128.565 44.2505C127.597 44.1958 126.642 44.1138 125.674 44.1001C125.101 44.1001 124.541 44.1958 123.968 44.2505C123.286 44.2505 122.604 44.2505 121.936 44.2505C121.595 43.7993 121.254 43.348 120.913 42.8831L120.845 42.9104ZM128.484 19.5681C128.552 18.1596 129.111 16.7648 128.647 15.329C128.17 13.2504 127.283 12.4163 125.592 12.43C123.9 12.5394 122.195 12.6488 120.504 12.7718C119.371 12.9496 118.989 13.4692 118.976 14.8093C118.457 17.681 117.966 20.5663 117.421 23.4379C117.121 24.9695 117.898 25.8173 119.426 25.4754C120.244 25.284 121.049 25.0652 121.868 24.8601C123.914 24.6686 125.633 23.7798 127.01 22.3166C127.72 21.5645 128.525 20.7851 128.484 19.5817V19.5681Z" fill="#FAF8CE"/>
<path d="M100.972 105.076C101.027 105.308 101.095 105.527 101.15 105.759C101.6 107.633 102.05 109.506 102.5 111.379C102.609 112.173 102.732 112.966 102.841 113.759C102.95 114.155 103.073 114.552 103.182 114.962C103.237 116.029 103.319 117.082 103.332 118.148C103.332 118.613 103.237 119.092 103.182 119.557C103.182 119.666 103.182 119.789 103.182 119.899C103.182 120.008 103.182 120.117 103.182 120.227L103.018 120.582C102.841 121.54 102.677 122.511 102.5 123.468C102.118 124.028 101.654 124.548 101.368 125.15C100.277 127.433 98.5851 129.156 96.5253 130.565C95.9115 130.989 95.2976 131.399 94.6838 131.809C94.3973 131.864 94.1245 131.919 93.838 131.987C92.9923 131.987 92.1466 131.987 91.3008 132.001C90.7415 132.001 90.1822 131.987 89.6093 131.973C89.3092 131.754 89.0228 131.495 88.6954 131.331C87.7951 130.852 86.7856 130.524 85.9672 129.949C84.3984 128.828 82.9389 127.584 81.4383 126.38C81.2747 126.257 81.0973 126.148 80.9336 126.025C80.8654 125.861 80.7972 125.697 80.7426 125.533C80.4153 125.3 80.0742 125.081 79.7469 124.849C79.2967 123.919 78.8465 123.003 78.3964 122.073C78.3282 121.923 78.3145 121.704 78.2054 121.608C77.387 120.883 77.005 119.94 76.8277 118.887C76.6913 118.094 76.5412 117.301 76.3366 116.535C76.1865 115.988 75.941 115.468 75.7227 114.949C75.4908 114.429 75.1907 113.937 74.9998 113.403C74.6587 112.432 74.3586 111.434 74.0858 110.45C73.9085 109.834 73.663 109.219 73.663 108.59C73.622 103.763 73.663 98.9357 73.622 94.1222C73.622 93.5889 73.3628 93.042 73.2401 92.5087C73.1446 92.0711 72.9673 91.6335 72.9673 91.1959C72.9536 86.0543 72.9536 80.9263 72.9673 75.7847C72.9673 75.019 73.0355 74.2532 73.1582 73.5148C73.1992 73.2823 73.5538 72.9678 73.7857 72.9541C74.5496 72.8857 75.3135 72.8994 76.0774 72.9404C76.9504 72.9815 77.7007 73.7883 77.7143 74.6634C77.7143 75.3198 77.7143 75.9625 77.7143 76.6189C77.7143 76.865 77.6871 77.1932 77.8235 77.3573C78.5192 78.1914 78.3145 79.1623 78.41 80.1196C78.4782 80.7896 78.7647 81.446 78.8875 82.116C78.9966 82.6904 78.983 83.292 79.0784 83.8664C79.1739 84.3723 79.3376 84.8783 79.4877 85.3706C79.5422 85.5347 79.6923 85.6851 79.6923 85.8355C79.6377 87.5858 80.7972 89.1447 80.4425 90.9634C80.3061 91.6882 80.4835 92.3719 80.9063 93.0556C81.1655 93.4932 81.0155 94.1496 81.1246 94.6966C81.2201 95.2299 81.4111 95.7632 81.5475 96.2828C81.6293 96.611 81.7657 96.9255 81.7794 97.2537C81.8067 98.0742 81.8067 98.8947 81.7794 99.7288C81.7794 100.495 81.7384 101.247 82.2841 101.903C82.4341 102.067 82.4478 102.382 82.4478 102.628C82.4614 103.612 82.4887 104.529 83.0071 105.472C83.8119 106.935 84.3439 108.563 85.0532 110.094C85.2988 110.614 85.708 111.079 86.0763 111.53C87.2358 112.938 89.9503 112.884 91.1508 110.915C91.2735 110.723 91.2872 110.422 91.2872 110.176C91.2872 108.385 91.4099 106.593 91.2462 104.816C91.1371 103.667 90.6188 102.573 90.2641 101.452C90.1959 101.233 90.0458 101.042 90.0049 100.823C89.7321 99.3459 89.5411 97.8554 89.2274 96.3785C89.0228 95.394 88.6681 94.4504 88.3543 93.4795C87.9724 92.2899 87.6587 91.0455 87.1403 89.9105C86.6629 88.8439 86.7583 87.6816 86.4446 86.656C85.9126 84.933 85.8308 83.0596 84.7395 81.5007C84.2757 80.8306 84.1529 79.9418 83.8664 79.1487C83.4436 78.0274 82.9525 76.9334 82.5569 75.7984C82.4069 75.3745 82.4614 74.8685 82.4205 74.2942C83.7164 74.3489 84.9304 73.9934 86.0627 74.7044C86.3082 74.8549 86.6629 74.9779 86.9357 74.9232C88.2179 74.7044 88.8864 75.5933 89.6093 76.3727C89.7185 76.4958 89.7867 76.783 89.7184 76.9197C89.432 77.4804 89.7867 77.8633 89.964 78.3282C90.2504 79.0393 90.3596 79.8187 90.6051 80.5571C90.7688 81.0494 90.9189 81.5964 91.2462 81.9519C92.2966 83.0732 93.1014 84.2766 93.3333 85.8218C93.3333 85.8765 93.3606 85.9312 93.3879 85.9859C94.1109 87.6679 94.8475 89.3362 95.5432 91.0318C95.7614 91.5378 95.8706 92.0984 96.0343 92.6317C96.0615 92.7411 96.0479 92.9052 96.1161 92.9462C97.3029 93.7941 97.3438 95.2436 97.8758 96.4196C98.285 97.3221 98.3942 98.3613 98.7761 99.2775C99.1171 100.071 99.6491 100.782 100.099 101.52C100.222 102.094 100.331 102.655 100.454 103.229C100.454 103.339 100.454 103.448 100.454 103.558C100.563 103.735 100.672 103.9 100.781 104.077C100.836 104.187 100.89 104.296 100.945 104.405C100.89 104.515 100.85 104.638 100.795 104.747C100.85 104.857 100.904 104.98 100.959 105.089L100.972 105.076Z" fill="#FAF8CE"/>
<path d="M63.5805 130.633C62.3937 130.578 61.2069 130.523 60.0202 130.468C59.1608 130.427 58.315 130.386 57.4556 130.359C57.4011 130.359 57.3465 130.537 57.2919 130.633C57.1828 130.633 57.0737 130.633 56.9509 130.633C56.719 130.687 56.4871 130.742 56.2689 130.797C53.4725 130.797 50.6078 131.152 47.8796 130.715C44.1556 130.127 40.4453 130.455 36.7349 130.277C36.4894 129.826 35.8073 129.511 36.2711 128.828C36.9668 127.816 37.7034 126.845 38.3718 125.819C39.0539 124.78 39.6677 123.686 40.3089 122.633C40.418 122.4 40.5135 122.182 40.6226 121.949C41.0591 121.047 41.4001 120.076 41.9458 119.242C43.9647 116.179 45.4652 112.842 47.0748 109.574C47.7569 108.193 48.3571 106.771 48.9982 105.376C49.0664 105.225 49.1619 105.048 49.1346 104.897C48.9573 103.707 49.653 102.901 50.2532 101.984C50.7033 101.287 50.8943 100.412 51.1944 99.6051C51.4263 98.9487 51.6446 98.2923 51.8765 97.636C52.2175 96.6651 52.5858 95.7079 52.9405 94.737C52.995 94.5729 53.1451 94.4361 53.1724 94.2857C53.4315 92.467 53.6634 90.6483 53.9226 88.8433C54.0727 87.8177 54.2636 86.8058 54.4273 85.7802C54.4955 85.3973 54.591 85.0007 54.591 84.6178C54.6047 82.2111 54.591 79.7907 54.591 77.384C54.591 77.0832 54.591 76.7687 54.591 76.6593C56.8691 75.8935 58.9834 75.1004 61.1524 74.485C62.5028 74.1021 63.7714 73.1723 65.4493 73.7603C65.272 75.2918 65.9131 76.9601 64.9855 78.5463C64.8082 78.8335 64.8218 79.2438 64.7945 79.613C64.699 80.9804 64.8354 82.2932 64.2352 83.6743C63.676 84.9734 63.103 86.4365 63.4168 87.9818C63.4577 88.2142 63.3759 88.4877 63.294 88.7202C62.9393 89.6774 62.5574 90.6346 62.2164 91.6055C62.1209 91.8927 62.0936 92.2072 62.0799 92.5217C62.0663 93.4516 62.0799 94.3951 62.0799 95.325C62.0799 95.5985 62.0936 95.9403 61.9572 96.1454C61.1933 97.3351 61.4797 98.6479 61.3843 99.9333C61.3433 100.508 61.0978 101.055 60.9614 101.615C60.8795 101.943 60.7568 102.258 60.7431 102.586C60.6476 104.008 61.0432 105.485 60.1156 106.798C59.9929 106.976 60.1156 107.304 60.0474 107.55C59.9247 108.056 59.7473 108.562 59.6382 109.068C59.5291 109.587 59.4199 110.107 59.4199 110.627C59.4199 110.777 59.7883 111.051 59.9929 111.064C61.2888 111.105 62.5983 111.092 63.8942 111.078C64.0033 111.078 64.1261 111.078 64.2216 111.023C66.677 109.82 69.2961 110.64 71.8333 110.435C71.9697 110.435 72.2698 110.805 72.2562 110.969C72.1607 111.775 71.9424 112.555 71.8469 113.362C71.7787 113.895 71.806 114.442 71.8469 114.975C71.8742 115.276 72.0788 115.55 72.1334 115.85C72.4199 117.437 72.6517 119.023 72.9928 120.595C73.1838 121.471 73.5793 122.291 73.8249 123.166C74.3569 125.04 75.6255 126.544 76.3758 128.294C76.7168 129.046 76.6759 130.058 77.7399 130.332C77.5762 130.509 77.4261 130.81 77.2624 130.824C76.7986 130.851 76.3348 130.742 75.8574 130.687C71.7787 130.687 67.7001 130.687 63.6214 130.687L63.5805 130.633Z" fill="#FAF8CE"/>
<path d="M9.53595 54.658C9.65872 53.7555 9.76785 52.8393 9.89062 51.9367C9.99975 51.4855 10.0952 51.0205 10.2044 50.5693C10.3817 49.5437 10.5454 48.5318 10.7227 47.5062C10.7773 47.219 10.8319 46.9319 10.8864 46.6584C10.8864 46.549 10.8864 46.4259 10.8864 46.3165C11.3502 45.8653 11.5275 45.0448 12.4142 45.1405C13.7374 46.3302 15.3198 47.0276 16.9976 47.4925C17.9388 47.7523 18.921 47.8481 19.8895 48.0258C20.0123 48.1352 20.1487 48.3267 20.2714 48.3267C22.0584 48.313 23.6544 49.0377 25.2641 49.6531C25.5369 49.7625 25.8779 49.6668 26.1917 49.7215C26.901 49.8582 27.5967 50.0223 28.306 50.1864C28.4424 50.2138 28.5652 50.3368 28.7016 50.3505C30.5431 50.5966 32.3983 50.8154 34.2399 51.0889C35.0038 51.1983 35.754 51.4308 36.5179 51.5675C37.0363 51.6632 37.5819 51.6632 38.1003 51.7726C38.7823 51.9094 39.4507 52.1008 40.1192 52.2786C40.733 52.4427 41.3196 52.7162 41.9471 52.7709C43.6522 52.894 45.3027 53.1127 46.967 53.6871C49.3678 54.5075 51.2093 55.9981 52.778 57.8988C53.5419 58.8287 53.3919 59.9774 53.0099 60.9619C52.6689 61.8234 51.9869 62.5482 51.4821 63.3413C50.9638 64.1344 50.309 64.6814 49.3269 64.8181C48.9585 64.8728 48.5902 65.0916 48.2901 65.3104C47.2125 66.1035 46.0939 66.6642 44.7162 66.842C43.2975 67.0334 41.9334 67.6487 40.5284 67.9906C39.9145 68.141 39.2461 68.0863 38.605 68.1274C38.1821 68.1547 37.691 68.0863 37.3637 68.2778C36.477 68.8111 35.5494 68.8111 34.5809 68.8111C31.7163 68.7974 28.8517 68.7427 26.0007 68.8384C25.1822 68.8658 24.241 69.2076 23.6135 69.7136C23.0951 70.1375 22.9315 71.0263 22.645 71.7101C22.4813 72.093 22.3449 72.4895 22.2494 72.8861C22.1266 73.3647 21.9902 73.857 21.9766 74.3493C21.8811 76.5098 20.9944 78.0824 19.0301 79.1764C17.6387 79.9421 16.4383 81.0361 15.1697 82.007C13.751 83.1009 12.3324 84.2086 10.9273 85.3162C10.6545 85.4256 10.3135 85.4803 10.0952 85.6581C8.71749 86.8067 7.36703 87.9827 5.98928 89.1314C5.75739 89.3228 5.40272 89.3912 5.11626 89.5143C5.03441 89.1587 4.898 88.8032 4.88436 88.434C4.85708 88.0238 4.93893 87.5998 4.97985 87.1759C5.14354 86.2734 5.32087 85.3572 5.48457 84.4547C5.60734 83.9488 5.71646 83.4291 5.83923 82.9232C5.94836 82.2394 6.05749 81.5557 6.16662 80.872C6.28939 80.1336 6.39852 79.3951 6.52129 78.6567C6.63041 78.0277 6.73954 77.3987 6.84867 76.7833C6.9578 76.1543 7.08057 75.5389 7.1897 74.9099C7.35339 74.1715 7.51708 73.4331 7.68077 72.6946C7.68077 72.5852 7.68077 72.4622 7.68077 72.3528C7.7899 71.6691 7.89903 70.9853 8.00816 70.3016C8.00816 70.1922 8.00816 70.0691 8.00816 69.9597C8.06272 68.8795 8.13093 67.7992 8.18549 66.7189V65.6933C8.18549 65.5839 8.18549 65.4608 8.18549 65.3514C8.29462 64.3258 8.40375 63.3003 8.51288 62.2883C8.622 61.4405 8.74477 60.5927 8.8539 59.7312C8.97667 58.7056 9.0858 57.6937 9.20857 56.6681C9.3177 55.9844 9.42683 55.3007 9.53595 54.6169V54.658ZM25.4005 57.2561C25.3459 58.0492 25.5232 58.8697 25.2095 59.3757C24.5957 60.3602 24.7184 61.3721 24.6502 62.3977C24.6093 63.1362 24.8003 63.3823 25.5778 63.3686C28.0059 63.3139 30.4477 63.3823 32.8758 63.3413C35.3039 63.2866 37.7865 63.7105 40.1328 62.6986C40.924 62.3567 41.7697 62.1653 42.5745 61.8508C43.2293 61.5909 43.7477 61.2217 43.6931 60.3602C43.6385 59.4987 43.1611 59.0065 42.4654 58.6783C41.5651 58.2544 40.6921 57.6937 39.5872 57.8852C39.3825 57.9262 39.137 57.6937 38.8915 57.6253C38.4413 57.4886 37.9912 57.2561 37.541 57.2561C33.7761 57.2288 30.0111 57.2424 26.2462 57.2424C25.9734 57.2424 25.7006 57.2698 25.3732 57.2835L25.4005 57.2561Z" fill="#FAF8CE"/>
<path d="M47.1026 1.51759C48.003 1.58596 48.9169 1.64066 49.8172 1.70903C50.2128 2.21499 50.6084 2.72094 51.004 3.24057C51.7406 4.49863 51.2768 6.04385 51.877 7.27455C52.6546 8.88814 52.2453 10.6111 52.6136 12.2111C52.9001 13.4418 53.0911 14.6451 53.2957 15.8758C53.5139 17.1612 54.1005 18.3919 54.4961 19.65C54.6052 19.9918 54.5779 20.3747 54.5643 20.7439C54.5507 21.4824 54.5234 22.2208 55.0827 22.8225C55.1236 22.8635 55.1372 22.9182 55.1509 22.9729C55.41 24.4087 55.6556 25.8582 55.942 27.294C56.0375 27.8 56.2149 28.2923 56.3649 28.7982C56.3922 28.9076 56.4877 28.9897 56.515 29.0991C56.7741 30.5075 57.0197 31.9297 57.3061 33.3382C57.4153 33.8715 57.579 34.4048 57.729 34.9244C57.7699 35.0885 57.8927 35.2252 57.9336 35.3893C58.1928 36.5243 58.3701 37.6867 58.6975 38.7943C58.984 39.8062 59.4342 40.7771 59.7888 41.7753C59.9116 42.1172 60.0071 42.4727 60.0071 42.8283C60.048 44.5786 62.2306 46.4657 64.0994 46.1922C63.8811 44.3598 64.4813 42.5001 63.6492 40.6403C63.3082 39.8882 63.5128 38.9174 63.4037 38.0559C63.3082 37.3448 63.0763 36.6611 62.9535 35.95C62.8444 35.2526 62.8308 34.5552 62.7216 33.8578C62.6125 33.2014 62.4352 32.5587 62.2851 31.916C62.1896 31.5058 62.0669 31.0955 62.0532 30.6716C62.0123 29.3315 62.2033 27.9641 61.4803 26.706C61.3166 26.4189 61.3848 25.995 61.3712 25.6257C61.2757 23.9028 61.6986 22.1114 60.7573 20.4705C60.6073 20.2106 60.7437 19.8004 60.6755 19.4722C60.5527 18.8432 60.389 18.2278 60.239 17.6125C60.1435 17.2022 60.0207 16.792 60.0071 16.3681C59.9662 15.028 60.0753 13.6879 59.4614 12.3888C59.1613 11.7598 59.3932 10.8846 59.3114 10.1325C59.2159 9.42145 58.9704 8.73773 58.8749 8.02665C58.7521 7.11046 58.7112 6.18059 58.643 5.25073C58.5884 4.96356 58.5338 4.69007 58.4793 4.40291C58.4793 4.34821 58.4793 4.27984 58.4793 4.22514C58.4793 4.11574 58.4793 4.00635 58.4793 3.89695C58.2337 3.00811 58.9567 2.4201 59.175 1.68168C59.4069 1.62698 59.6251 1.57228 59.857 1.51759C61.5485 1.57228 63.24 1.62698 64.9451 1.68168C65.2862 2.02354 65.6272 2.36541 65.9682 2.69359L66.3229 5.57891V5.92078C66.3229 6.03017 66.3229 6.13957 66.3229 6.24897C66.432 6.98739 66.5411 7.72581 66.6503 8.46424C66.7048 12.717 66.7594 16.9561 66.8412 21.2089C66.8412 21.6601 67.0731 22.1114 67.1959 22.5627C67.305 22.9319 67.4824 23.3011 67.496 23.684C67.5233 25.3796 67.496 27.0889 67.5096 28.7845C67.5096 29.058 67.4824 29.4136 67.6324 29.605C68.3417 30.4665 68.1781 31.4648 68.1917 32.4493C68.1917 34.774 68.1917 37.0987 68.1917 39.4233C68.1917 39.7789 68.1781 40.2164 68.3554 40.4899C68.9829 41.4061 68.8601 42.4317 68.8601 43.4299C68.8601 44.7974 69.0238 46.1785 68.8192 47.5049C68.6282 48.7767 68.1644 50.0484 67.6188 51.2244C67.2368 52.0722 66.4184 52.5372 65.368 52.4141C64.8633 52.3594 64.3449 52.3731 63.8402 52.4141C62.1624 52.5372 60.9892 51.6483 59.8843 50.527C58.4929 49.0912 57.047 47.6964 55.6147 46.3016C55.0008 45.7136 54.6052 45.0846 54.537 44.1957C54.4961 43.7581 54.0732 43.3479 53.814 42.9377C53.6231 42.6095 53.3775 42.3086 53.2275 41.9668C53.0365 41.5292 52.9274 41.0779 52.791 40.6267C52.7091 40.3805 52.5727 40.1481 52.5591 39.9019C52.5591 38.3977 51.8088 37.1123 51.3859 35.7312C51.0313 34.5552 50.813 33.3518 50.4856 32.1622C50.131 30.8768 49.7354 29.605 49.3671 28.3196C49.3671 28.2923 49.3398 28.2649 49.3398 28.2376C49.0533 26.8838 48.7669 25.53 48.4668 24.1626C48.3713 23.6976 48.2349 23.2464 48.1257 22.7814C47.28 19.6637 46.4342 16.5322 45.5749 13.4144C45.5749 13.2366 45.5749 13.0725 45.5749 12.8948C45.5749 12.7854 45.5749 12.676 45.5749 12.5666C45.5203 12.17 45.4657 11.7735 45.4112 11.3632C45.3566 11.1855 45.302 11.0214 45.2475 10.8436C45.1247 10.3923 45.0156 9.94108 44.8928 9.48982C44.6063 8.46424 44.3199 7.45232 44.0471 6.42673C43.9925 6.08487 43.9379 5.74301 43.8834 5.40115C43.7197 4.40291 43.5287 3.41834 43.3786 2.4201C43.3104 1.96884 43.4605 1.65433 44.0061 1.64066C45.0429 1.59963 46.0796 1.53126 47.1163 1.47656L47.1026 1.51759Z" fill="#FAF8CE"/>
<path d="M106.757 11.9102C106.539 12.7991 106.443 13.7563 106.048 14.5768C105.488 15.7391 104.288 16.163 103.101 16.2998C102.146 16.4228 101.232 16.3955 100.318 16.8604C99.8137 17.1202 99.1044 17.0245 98.4905 17.0108C97.2492 16.9698 96.4716 17.4484 95.926 18.6381C95.5304 19.4996 95.2985 20.2927 95.3394 21.2226C95.3394 21.5234 95.3122 21.8926 95.1485 22.1251C94.3709 23.1507 94.7665 24.313 94.6983 25.4207C94.6983 25.5711 94.9438 25.8582 95.053 25.8582C95.8032 25.8035 96.5671 25.7899 97.2901 25.5847C98.8997 25.1472 100.414 24.2993 102.187 24.5045C102.637 24.5592 102.869 24.6275 102.842 25.1335C102.801 26.2274 102.883 27.2804 102.283 28.3333C101.805 29.1675 101.751 30.2478 101.464 31.1913C101.205 32.0391 101.028 32.9553 100.591 33.7074C99.9501 34.8424 98.7497 35.3894 97.522 35.3483C96.0897 35.2936 94.9438 36.0594 93.6207 36.2782C93.075 36.3739 92.543 36.5654 92.0383 36.7842C91.6564 36.9483 91.2062 37.1671 91.0289 37.4816C90.5242 38.3978 89.7739 39.2456 89.9239 40.4216C89.9239 40.5036 89.9239 40.5857 89.9239 40.6814C89.9785 41.3925 90.0467 42.1172 90.1013 42.8283C91.1244 42.7599 92.1611 42.7326 93.1841 42.5958C94.2209 42.4591 95.2439 42.2266 96.2807 42.0215C96.8536 41.9121 97.4129 41.7617 98.0676 41.6113C98.0131 43.2796 98.4905 45.0025 97.0582 46.3973C96.8399 46.6025 96.7717 46.999 96.7308 47.3272C96.5944 48.2981 95.8851 48.9682 94.9438 49.0092C94.6437 49.0092 94.33 49.0639 94.0299 49.1459C92.6794 49.5288 91.3563 49.9527 90.0058 50.3083C88.8463 50.6091 87.5777 50.6501 86.5137 51.1424C85.3133 51.7167 84.1265 51.7441 82.8852 51.7304C81.4119 51.7304 80.9209 50.8416 81.5483 49.5698C82.0121 48.6263 82.3395 47.6554 82.5441 46.5751C82.776 45.3581 83.1853 44.1684 83.1853 42.8967C83.1853 42.7052 83.5263 42.4728 83.7582 42.3223C84.5767 41.8027 84.754 41.3104 84.2629 40.5173C83.9492 40.0113 84.0719 39.7242 84.3857 39.2593C84.7813 38.6849 85.0541 37.9602 85.1359 37.2628C85.2587 36.2645 85.2041 35.3073 85.6952 34.3228C86.0635 33.5843 85.7771 32.5451 85.8726 31.6426C85.9408 31.0272 86.1727 30.4118 86.3364 29.8102C86.3636 29.7281 86.4182 29.6597 86.4455 29.5777C86.7047 28.4154 86.9638 27.253 87.223 26.0907C87.2503 25.954 87.223 25.7762 87.3185 25.6805C88.096 24.7506 87.8505 23.6566 87.9187 22.59C87.9596 22.0567 88.2052 21.5371 88.3416 21.0038C88.6553 19.8278 88.9554 18.6518 89.2555 17.4758C89.4192 16.8057 89.5829 16.1493 89.7466 15.4793C89.7466 15.4246 89.8012 15.3836 89.8148 15.3289C90.0876 14.0024 90.3741 12.676 90.606 11.3359C90.7151 10.7342 90.7288 10.1052 90.7833 9.48985C90.9743 8.54631 91.1653 7.60277 91.3563 6.64556C91.5063 5.89346 91.6427 5.12769 91.7928 4.37559C91.9155 3.81493 92.0247 3.24061 92.1474 2.67995C92.2566 2.22869 92.3793 1.77743 92.4885 1.3125C93.2251 1.3672 93.9617 1.4219 94.6983 1.47659C95.1757 1.47659 95.6532 1.50394 96.1306 1.47659C97.0173 1.43557 97.8903 1.3672 98.777 1.3125C101.723 1.3125 104.67 1.3125 107.616 1.3125C108.012 1.47659 108.408 1.65436 108.803 1.81846C108.749 2.44748 108.694 3.06284 108.639 3.69186C108.53 4.14312 108.421 4.59438 108.298 5.05931C108.23 5.45587 108.176 5.85244 108.107 6.23532C107.944 6.75495 107.78 7.26091 107.616 7.78054C107.616 7.94463 107.616 8.1224 107.616 8.2865C107.562 8.46427 107.507 8.62836 107.453 8.80613C107.453 8.86083 107.453 8.91552 107.453 8.97022C107.289 9.16167 107.003 9.32576 106.975 9.54455C106.866 10.324 106.839 11.1034 106.784 11.8829L106.757 11.9102Z" fill="#FAF8CE"/>
<path d="M87.3719 4.75843C87.3719 4.97722 87.3719 5.20969 87.3719 5.42848C87.2628 5.64727 87.0718 5.85239 87.0582 6.08485C87.0172 6.71388 87.0445 7.35658 87.0309 7.98561C86.8672 8.34115 86.5671 8.69669 86.5535 9.05222C86.4989 10.0368 86.608 11.035 85.9669 11.9102C85.8305 12.088 85.8578 12.4025 85.8578 12.6486C85.8578 13.7016 85.7486 14.7545 85.885 15.7938C86.0214 16.9424 85.3803 17.7902 85.0393 18.7474C84.9711 18.9252 84.5346 19.0483 84.2618 19.0483C82.1338 19.0756 80.0194 19.0756 77.8914 19.0483C77.2503 19.0483 77.0047 19.185 77.0047 19.8961C77.0456 22.5353 77.0456 25.1745 77.0047 27.8136C77.0047 28.47 77.223 28.6341 77.8368 28.6204C79.5556 28.5794 81.2744 28.6204 83.0341 28.6204C83.2114 29.4683 83.1978 30.1793 82.7067 30.8631C82.543 31.0955 82.4748 31.4374 82.4611 31.7246C82.4066 32.9006 82.5293 34.0492 81.8882 35.1842C81.5745 35.7449 81.7791 36.62 81.7791 37.3584C81.7791 38.89 81.138 39.519 79.6374 39.519C78.5598 39.519 77.4822 39.5327 76.4045 39.519C75.8862 39.5053 75.6406 39.6284 75.6406 40.2164C75.6679 42.0351 75.6679 43.8538 75.6406 45.6589C75.6406 46.1785 75.818 46.3563 76.3227 46.3426C77.414 46.3152 78.5189 46.3426 79.7602 46.3426C79.5147 47.9152 80.1831 49.4604 79.1464 50.8689C78.8872 51.2107 79.0372 51.8534 78.9963 52.4004C76.9638 52.4004 74.9586 52.5098 72.9806 52.3594C71.5756 52.2637 71.5756 52.0996 71.5756 50.5954C71.5756 49.5424 71.5756 48.4895 71.5756 47.4502C71.5756 46.4383 71.6438 45.4264 71.0709 44.4965C70.9072 44.2367 70.9072 43.8402 70.9072 43.512C70.9072 40.9822 70.8935 38.4661 70.9072 35.9363C70.9072 35.5261 70.9617 35.0748 71.1254 34.6919C71.7938 33.2287 71.6984 31.7929 71.2209 30.3161C71.0299 29.7144 70.9072 29.0443 70.9072 28.4153C70.8799 22.8498 70.8799 17.2843 70.9072 11.7324C70.9072 8.92915 71.0027 6.12588 71.0845 3.32261C71.0845 2.8987 71.18 2.48846 71.2346 2.06455C71.6847 1.90046 72.1485 1.73636 72.5987 1.55859C77.5231 1.61329 82.4611 1.65432 87.3855 1.70901C87.4401 1.76371 87.5083 1.83208 87.5629 1.88678C87.5629 2.62521 87.5629 3.36363 87.5629 4.10205C87.5629 4.21145 87.5629 4.33452 87.5629 4.44391C87.5083 4.55331 87.4538 4.67638 87.3992 4.78578L87.3719 4.75843Z" fill="#FAF8CE"/>
<path d="M117.286 71.8594C120.205 71.9415 123.097 71.7637 125.989 71.2304C128.076 70.8475 130.204 70.5877 132.318 70.4236C134.692 70.2458 137.079 70.2322 139.452 70.1638C140.475 70.1364 140.557 70.2458 140.571 71.2714C140.571 71.75 140.571 72.2286 140.571 72.7209C140.516 72.9534 140.462 73.1722 140.407 73.4046C140.339 73.9106 140.216 74.4166 140.23 74.9088C140.271 76.331 140.366 77.7395 140.448 79.1616C140.475 79.6812 140.516 80.2009 140.557 80.7205C140.503 81.4042 140.434 82.0743 140.38 82.758C139.875 82.8127 139.357 82.8674 138.852 82.9358C138.347 82.8264 137.829 82.717 137.324 82.6076C136.929 82.4982 136.533 82.3888 136.137 82.2657C136.028 82.2657 135.919 82.2657 135.81 82.2657C135.128 82.0469 134.446 81.8281 133.75 81.6093C133.587 81.6093 133.423 81.6093 133.246 81.6093C133.123 81.5546 133.014 81.4589 132.877 81.4316C130.163 80.8572 127.448 80.2966 124.734 79.7359C124.338 79.6812 123.942 79.6265 123.547 79.5718C123.383 79.5718 123.206 79.5718 123.042 79.5718C121.282 79.1753 119.536 78.7787 117.777 78.3822C117.613 78.3275 117.436 78.2728 117.272 78.2181C116.372 77.9856 115.458 77.7668 114.557 77.5343C114.448 77.5343 114.339 77.5343 114.216 77.5343C112.525 77.0831 110.847 76.5498 109.128 76.1942C107.546 75.8661 105.895 75.825 104.531 74.7994C103.999 73.514 103.372 72.256 102.962 70.9296C102.567 69.6578 102.43 68.3177 102.13 67.0186C101.967 66.2802 101.68 65.5828 101.462 64.8581C101.066 63.559 100.453 62.2736 100.33 60.9335C100.112 58.6088 98.9248 56.3936 99.5522 53.9048C101.23 53.3852 102.962 52.8519 104.695 52.3322C105.568 52.2365 106.455 52.1818 107.328 52.0177C108.323 51.8263 109.319 51.5528 110.301 51.3066C110.588 51.881 110.874 52.4416 111.147 53.016C111.202 53.3031 111.27 53.5766 111.324 53.8638C111.324 54.0279 111.324 54.2056 111.324 54.3697C111.434 54.7116 111.529 55.0535 111.638 55.409C111.706 55.8603 111.761 56.3115 111.829 56.7628C111.884 56.9952 111.938 57.214 111.993 57.4465C112.116 58.1302 112.225 58.8139 112.348 59.484C112.457 59.8259 112.566 60.1677 112.675 60.5096C112.729 60.9061 112.798 61.3027 112.852 61.6993C113.125 62.5608 113.412 63.4086 113.684 64.2701C113.753 64.6119 113.807 64.9401 113.875 65.282C113.93 65.3914 113.984 65.5145 114.025 65.6238C114.025 65.8563 114.025 66.0751 114.039 66.3076C114.148 66.4853 114.244 66.6631 114.353 66.8409C114.353 67.0597 114.353 67.2785 114.353 67.5109C114.707 68.7963 115.021 70.1091 115.444 71.3671C115.54 71.627 116.058 71.75 116.385 71.9278C116.672 71.9278 116.945 71.9278 117.231 71.9278L117.286 71.8594Z" fill="#FAF8CE"/>
<path d="M82.1187 55.1775C82.8008 55.1775 83.4828 55.1228 84.1512 55.1912C84.7787 55.2595 85.4198 55.3963 86.0064 55.6151C87.2205 56.0527 88.4209 56.5313 89.5804 57.0646C90.1806 57.3381 90.7808 57.7073 91.2582 58.1585C92.2813 59.1294 93.2634 60.155 94.191 61.2216C94.4639 61.5361 94.5321 62.0284 94.6821 62.4387C94.7776 62.6985 94.7776 63.013 94.9276 63.2455C95.7052 64.5172 95.4051 65.7205 94.8867 67.0059C93.85 69.5767 91.5447 70.4656 89.3075 71.4228C88.6528 71.6963 87.807 71.5049 87.0431 71.5185C86.1701 71.5185 85.2834 71.5596 84.4104 71.5185C83.9193 71.4912 83.4146 71.3544 82.9645 71.1767C81.614 70.6434 80.2772 70.0827 78.9676 69.481C77.9036 68.9887 76.8669 68.4691 76.0894 67.4982C75.4892 66.7325 74.6843 66.1308 74.0569 65.3924C73.8113 65.1052 73.6613 64.6403 73.6476 64.2437C73.5931 63.0814 73.6749 61.919 73.6067 60.7567C73.5521 59.8542 73.9341 59.2525 74.6434 58.7602C74.9708 58.5414 75.2846 58.2679 75.5028 57.9534C76.9215 55.9433 78.763 54.8903 81.2866 55.1775C81.5594 55.2048 81.8459 55.1775 82.1324 55.1775H82.1187ZM82.8144 66.9786C82.828 66.9102 82.8553 66.8418 82.869 66.7598C83.3464 66.7598 83.8238 66.7598 84.3149 66.7598C84.956 66.7325 86.4702 65.5838 86.4975 64.9684C86.5657 63.5463 86.7976 62.1105 85.3653 61.0439C84.2876 60.2507 83.2373 59.4576 81.8868 59.2798C80.9183 59.1568 79.9089 59.2388 78.9267 59.2662C77.9582 59.2935 76.485 60.5242 76.3349 61.4267C76.0621 63.0814 77.2761 65.3924 78.8721 65.953C80.1544 66.4043 81.4912 66.6367 82.8144 66.9786Z" fill="#FAF8CE"/>
<path d="M62.5567 70.1646C62.3248 70.1646 62.1065 70.1372 61.8746 70.1646C59.6102 70.4791 58.137 69.18 56.5683 67.8126C55.1633 66.5819 54.945 65.0777 55.3269 63.6145C55.6407 62.3838 55.7498 60.948 56.9366 60.0044C57.8233 59.307 58.5872 58.4455 59.3511 57.6114C60.4833 56.367 62.0247 56.1345 63.5252 55.8884C64.521 55.7243 65.5577 55.9294 66.5808 55.8337C67.6312 55.7516 68.245 56.2713 68.8589 57.0097C69.5409 57.8165 70.3048 58.5686 71.1096 59.266C71.819 59.8813 72.3782 60.4694 72.2691 61.536C72.1463 62.835 72.3782 64.1478 71.6143 65.3922C70.7413 66.8006 69.6228 67.8946 68.2723 68.7835C67.8221 69.0706 67.2901 69.2074 66.84 69.5082C65.5032 70.397 64.0163 70.1372 62.5567 70.1646ZM65.5577 66.1853C66.1852 66.0759 66.9491 66.1443 67.4129 65.8024C68.7088 64.8178 69.9229 63.7376 69.5545 61.7548C69.3636 60.7702 68.7906 60.0454 67.7949 59.936C67.4265 59.895 67.031 59.7583 66.7036 59.5668C65.8715 59.1019 65.3531 59.1293 64.6574 59.813C64.0026 60.442 63.3752 61.0847 62.7477 61.7274C61.7928 62.6983 61.7792 63.8606 62.6522 64.8862C63.4297 65.7887 64.33 66.2947 65.5714 66.1853H65.5577Z" fill="#FAF8CE"/>
</g>
<defs>
<clipPath id="clip0_15_537">
<rect width="146" height="132" fill="white"/>
</clipPath>
</defs>
</svg>
